<?xml version="1.0" encoding="iso-8859-1"?>
<!-- Generator: Adobe Illustrator 19.0.0, SVG Export Plug-In . SVG Version: 6.00 Build 0)  -->
<svg version="1.1" id="Capa_1" xmlns="http://www.w3.org/2000/svg" xmlns:xlink="http://www.w3.org/1999/xlink" x="0px" y="0px"
	 viewBox="0 0 512 512" style="enable-background:new 0 0 512 512;" xml:space="preserve">
<path style="fill:#45748C;" d="M484.333,380.336H42.159c-5.846,0-10.584-4.739-10.584-10.584v-45.374h472.638v36.078
	C504.213,371.435,495.312,380.336,484.333,380.336z"/>
<path style="fill:#3C6A7C;" d="M504.713,354.71H349.268V193.801h96.593c4.089,0,8.007,1.637,10.88,4.546l43.559,44.097
	c2.828,2.863,4.413,6.724,4.413,10.748V354.71z"/>
<path style="fill:#FFB125;" d="M367.375,354.71H22.308c-8.296,0-15.021-6.725-15.021-15.021V109.767
	c0-8.296,6.725-15.021,15.021-15.021h330.046c8.296,0,15.021,6.725,15.021,15.021V354.71z"/>
<path style="fill:#FF901D;" d="M352.354,94.746h-44.043c8.296,0,15.021,6.725,15.021,15.021v199.29
	c0,11.799-9.565,21.364-21.364,21.364H22.308c-8.296,0-15.021-6.725-15.021-15.021v24.288c0,8.296,6.725,15.021,15.021,15.021
	h345.067V109.767C367.375,101.471,360.65,94.746,352.354,94.746z"/>
<path style="fill:#305B68;" d="M500.3,242.444l-43.559-44.097c-2.873-2.909-6.792-4.546-10.881-4.546h-44.572
	c4.089,0,8.007,1.637,10.88,4.546l43.559,44.097c2.828,2.862,4.413,6.724,4.413,10.747v63.359c0,6.896-5.591,12.487-12.487,12.487
	h-80.279v25.672h137.338V253.191C504.713,249.168,503.128,245.306,500.3,242.444z"/>
<path style="fill:#21D8DE;" d="M393.606,286.266v-57.958c0-3.488,2.828-6.316,6.316-6.316h38.729c1.689,0,3.307,0.676,4.494,1.877
	l33.514,33.928c1.168,1.182,1.823,2.777,1.823,4.439v24.03c0,3.488-2.828,6.316-6.316,6.316h-72.243
	C396.434,292.581,393.606,289.754,393.606,286.266z"/>
<g>
	<circle style="fill:#1D4859;" cx="114.48" cy="375.8" r="41.452"/>
	<circle style="fill:#1D4859;" cx="432.92" cy="375.8" r="41.452"/>
</g>
<path style="fill:#193D4B;" d="M143.791,405.113c16.188-16.188,16.188-42.434,0-58.622l-58.622,58.622
	C101.356,421.301,127.603,421.301,143.791,405.113z"/>
<circle style="fill:#FFFFFF;" cx="114.48" cy="375.8" r="16.02"/>
<path style="fill:#193D4B;" d="M462.235,405.113c16.188-16.188,16.188-42.434,0-58.622l-58.622,58.622
	C419.801,421.301,446.047,421.301,462.235,405.113z"/>
<circle style="fill:#FFFFFF;" cx="432.92" cy="375.8" r="16.02"/>
<path d="M448.329,218.749c-2.538-2.57-6.065-4.044-9.677-4.044h-38.73c-7.5,0-13.602,6.102-13.602,13.602v57.958
	c0,7.5,6.102,13.603,13.602,13.603h72.244c7.5,0,13.602-6.102,13.602-13.603v-24.03c0-3.602-1.394-6.998-3.925-9.559
	L448.329,218.749z M471.195,285.296h-70.303v-56.017h37.353l32.95,33.356V285.296z"/>
<path d="M99.268,179.388c3.438,0,5.386-3.667,5.386-7.907c0-3.667-1.604-7.678-5.386-7.678H59.504c-3.896,0-7.793,1.833-7.793,5.5
	v72.767c0,3.667,4.469,5.5,8.938,5.5s8.938-1.833,8.938-5.5v-29.565h17.304c3.782,0,5.386-3.667,5.386-6.761
	c0-3.667-1.948-6.991-5.386-6.991H69.588v-19.366h29.68V179.388z"/>
<path d="M176.85,188.326c0-18.679-12.491-24.523-28.19-24.523h-23.721c-3.323,0-5.5,2.521-5.5,5.386v72.881
	c0,3.667,4.469,5.5,8.938,5.5s8.938-1.833,8.938-5.5v-27.617h7.563l15.699,30.482c1.26,2.407,3.438,3.323,5.73,3.323
	c5.271,0,11.231-4.813,11.231-9.282c0-0.573-0.115-1.375-0.573-2.063l-13.981-25.325C171.006,208.495,176.85,201.161,176.85,188.326
	z M148.66,200.703h-11.345v-21.315h11.345c6.417,0,10.313,2.636,10.313,10.658C158.973,198.067,155.077,200.703,148.66,200.703z"/>
<path d="M243.661,179.388c3.438,0,5.386-3.667,5.386-7.907c0-3.667-1.604-7.678-5.386-7.678h-40.795c-3.896,0-7.793,1.833-7.793,5.5
	v72.767c0,3.667,3.897,5.5,7.793,5.5h40.795c3.781,0,5.386-4.011,5.386-7.678c0-4.24-1.948-7.907-5.386-7.907H212.95v-19.481h17.189
	c3.782,0,5.386-3.667,5.386-6.761c0-3.667-1.948-6.991-5.386-6.991H212.95v-19.366h30.711V179.388z"/>
<path d="M273.342,247.571h40.795c3.782,0,5.385-4.011,5.385-7.678c0-4.24-1.947-7.907-5.385-7.907h-30.712v-19.481h17.19
	c3.782,0,5.385-3.667,5.385-6.761c0-3.667-1.948-6.991-5.385-6.991h-17.19v-19.366h30.712c3.438,0,5.385-3.667,5.385-7.907
	c0-3.667-1.603-7.678-5.385-7.678h-40.795c-3.897,0-7.793,1.833-7.793,5.5v72.767C265.548,245.738,269.445,247.571,273.342,247.571z
	"/>
<path d="M276.983,316.52c1.349,2.338,3.799,3.645,6.317,3.645c1.236,0,2.49-0.315,3.637-0.978l34.076-19.674
	c0.036-0.021,0.067-0.047,0.103-0.069c0.202-0.122,0.398-0.253,0.587-0.393c0.061-0.045,0.122-0.089,0.181-0.135
	c0.225-0.178,0.442-0.365,0.645-0.568c0.009-0.009,0.017-0.02,0.027-0.03c0.191-0.194,0.368-0.401,0.537-0.615
	c0.048-0.061,0.094-0.124,0.14-0.187c0.134-0.182,0.259-0.37,0.376-0.564c0.033-0.055,0.068-0.108,0.099-0.163
	c0.284-0.5,0.508-1.037,0.668-1.602c0.02-0.069,0.036-0.139,0.054-0.209c0.055-0.218,0.099-0.439,0.133-0.664
	c0.012-0.076,0.026-0.152,0.035-0.229c0.035-0.29,0.059-0.583,0.059-0.883c0-0.299-0.023-0.593-0.059-0.883
	c-0.009-0.077-0.023-0.153-0.035-0.229c-0.034-0.225-0.079-0.446-0.133-0.664c-0.018-0.07-0.034-0.14-0.054-0.209
	c-0.16-0.565-0.384-1.102-0.668-1.602c-0.031-0.056-0.066-0.108-0.099-0.163c-0.117-0.194-0.242-0.382-0.376-0.564
	c-0.046-0.063-0.092-0.126-0.14-0.187c-0.168-0.214-0.345-0.42-0.536-0.613c-0.01-0.01-0.018-0.021-0.028-0.031
	c-0.202-0.203-0.42-0.39-0.645-0.568c-0.059-0.047-0.12-0.09-0.181-0.135c-0.189-0.14-0.385-0.271-0.587-0.393
	c-0.036-0.021-0.067-0.048-0.103-0.069l-34.076-19.674c-3.487-2.013-7.942-0.818-9.954,2.667c-2.012,3.485-0.818,7.942,2.667,9.953
	l10.525,6.077H51.491c-4.024,0-7.287,3.262-7.287,7.287c0,4.024,3.262,7.286,7.287,7.286h238.684l-10.525,6.077
	C276.165,308.578,274.971,313.034,276.983,316.52z"/>
<path d="M7.287,277.098c4.024,0,7.287-3.262,7.287-7.287V109.767c0-4.265,3.47-7.735,7.735-7.735h235.149
	c4.025,0,7.287-3.262,7.287-7.287s-3.262-7.287-7.287-7.287H22.308C10.007,87.459,0,97.466,0,109.767v160.045
	C0,273.836,3.262,277.098,7.287,277.098z"/>
<path d="M505.484,237.323l-43.56-44.098c-4.214-4.265-10.069-6.711-16.064-6.711h-71.199v-76.747
	c0-12.301-10.007-22.308-22.307-22.308h-43.558c-4.025,0-7.287,3.262-7.287,7.287s3.262,7.287,7.287,7.287h43.558
	c4.265,0,7.734,3.47,7.734,7.735l0,0v237.656H154.111c-0.064-0.089-0.132-0.174-0.197-0.263c-0.14-0.192-0.285-0.381-0.428-0.571
	c-0.31-0.413-0.625-0.822-0.948-1.225c-0.171-0.213-0.343-0.425-0.518-0.636c-0.332-0.4-0.672-0.794-1.016-1.184
	c-0.161-0.182-0.319-0.366-0.484-0.547c-0.513-0.563-1.036-1.119-1.576-1.659c-1.104-1.103-2.251-2.136-3.43-3.111
	c-0.275-0.228-0.555-0.447-0.834-0.668c-1.099-0.869-2.221-1.695-3.374-2.456c-0.138-0.091-0.28-0.172-0.419-0.262
	c-0.818-0.527-1.649-1.023-2.49-1.497c-3.664-2.062-7.536-3.614-11.519-4.655c-0.352-0.092-0.703-0.187-1.056-0.271
	c-1.428-0.339-2.868-0.619-4.316-0.828c-0.008-0.001-0.016-0.003-0.025-0.004c-0.218-0.031-0.438-0.05-0.656-0.079
	c-0.889-0.116-1.78-0.205-2.672-0.271c-1.111-0.083-2.225-0.136-3.339-0.143c-0.111-0.001-0.223-0.008-0.334-0.008
	c-1.115,0-2.229,0.051-3.341,0.127c-1.223,0.083-2.444,0.199-3.66,0.374c-1.013,0.146-2.02,0.335-3.024,0.545
	c-2.829,0.59-5.617,1.422-8.324,2.517c-0.285,0.115-0.565,0.247-0.848,0.368c-2.632,1.125-5.19,2.478-7.628,4.086
	c-0.086,0.057-0.169,0.12-0.255,0.177c-2.606,1.743-5.084,3.758-7.383,6.058c-0.525,0.525-1.034,1.063-1.533,1.61
	c-0.19,0.207-0.372,0.42-0.557,0.63c-0.294,0.333-0.587,0.668-0.871,1.009c-0.232,0.278-0.459,0.558-0.685,0.84
	c-0.214,0.268-0.425,0.539-0.634,0.811c-0.257,0.336-0.511,0.672-0.759,1.013c-0.042,0.058-0.087,0.113-0.128,0.171H22.308l0,0
	c-4.265,0-7.735-3.47-7.735-7.735v-18.87c0-4.024-3.262-7.287-7.287-7.287S0,316.794,0,320.818v18.87
	c0,12.301,10.007,22.308,22.308,22.308h1.981v7.755c0,9.854,8.017,17.871,17.871,17.871h25.018
	c2.107,8.498,6.488,16.293,12.839,22.643c9.205,9.206,21.444,14.276,34.463,14.276s25.258-5.07,34.463-14.276
	c6.477-6.477,10.742-14.34,12.804-22.643h223.909c2.062,8.303,6.327,16.166,12.804,22.643c9.206,9.206,21.445,14.276,34.464,14.276
	s25.258-5.07,34.464-14.276c6.477-6.477,10.742-14.34,12.804-22.643h4.141c14.979,0,27.166-12.187,27.166-27.167v-3.106
	c0.319-0.82,0.501-1.708,0.501-2.641V253.191C512,247.212,509.686,241.576,505.484,237.323z M65.823,373.049H42.159
	c-1.818,0-3.298-1.48-3.298-3.298v-7.755h28.86C66.674,365.563,66.033,369.264,65.823,373.049z M148.626,375.925
	c-0.002,0.478-0.013,0.957-0.034,1.434c-0.002,0.056-0.005,0.112-0.008,0.168c-0.025,0.502-0.061,1.004-0.108,1.505
	c-0.002,0.024-0.004,0.049-0.006,0.073c-0.734,7.618-4.01,15.034-9.832,20.856c-6.453,6.453-15.033,10.007-24.159,10.007
	s-17.706-3.554-24.159-10.007c-5.541-5.541-8.937-12.652-9.788-20.328c-0.003-0.03-0.002-0.06-0.005-0.09
	c-0.802-7.331,0.805-14.832,4.525-21.12c0-0.001,0.001-0.002,0.002-0.002c0.355-0.6,0.73-1.188,1.122-1.765
	c0.041-0.06,0.084-0.118,0.125-0.177c0.33-0.479,0.673-0.949,1.028-1.412c0.105-0.137,0.212-0.273,0.319-0.408
	c0.313-0.396,0.636-0.784,0.966-1.167c0.116-0.134,0.228-0.269,0.346-0.401c0.44-0.494,0.891-0.979,1.36-1.447
	c6.661-6.66,15.41-9.991,24.159-9.991c6.52,0,13.041,1.853,18.698,5.553c1.932,1.264,3.765,2.742,5.461,4.438
	c0.468,0.468,0.918,0.952,1.358,1.445c0.141,0.158,0.275,0.32,0.412,0.48c0.291,0.339,0.577,0.683,0.855,1.032
	c0.157,0.198,0.312,0.398,0.464,0.599c0.244,0.321,0.48,0.648,0.711,0.977c0.154,0.219,0.311,0.437,0.459,0.659
	c0.226,0.338,0.44,0.683,0.654,1.029c0.696,1.128,1.327,2.284,1.88,3.469c0.026,0.056,0.052,0.113,0.078,0.169
	c0.195,0.424,0.379,0.851,0.556,1.281c0.034,0.083,0.069,0.165,0.102,0.249c0.175,0.435,0.339,0.874,0.495,1.315
	c0.021,0.061,0.045,0.121,0.066,0.181c0.169,0.487,0.327,0.977,0.473,1.47c0.044,0.147,0.081,0.295,0.123,0.443
	c0.095,0.335,0.187,0.671,0.272,1.009c0.053,0.213,0.102,0.427,0.151,0.641c0.064,0.279,0.126,0.559,0.183,0.839
	c0.046,0.224,0.089,0.449,0.131,0.674c0.053,0.289,0.101,0.579,0.146,0.869c0.032,0.206,0.066,0.411,0.094,0.617
	c0.053,0.384,0.098,0.769,0.138,1.154c0.011,0.11,0.027,0.219,0.037,0.329c0.05,0.526,0.088,1.053,0.113,1.581
	c0.001,0.014,0.001,0.028,0.001,0.041c0.024,0.514,0.036,1.029,0.037,1.543C148.628,375.801,148.627,375.863,148.626,375.925z
	 M385.525,364.535c-0.053,0.223-0.097,0.449-0.147,0.673c-0.137,0.621-0.266,1.243-0.378,1.868
	c-0.056,0.309-0.106,0.618-0.156,0.928c-0.086,0.533-0.162,1.066-0.231,1.601c-0.047,0.369-0.093,0.737-0.132,1.107
	c-0.047,0.454-0.083,0.908-0.117,1.362c-0.025,0.325-0.065,0.649-0.084,0.975H163.124c-0.018-0.313-0.057-0.625-0.081-0.937
	c-0.035-0.471-0.073-0.942-0.122-1.412c-0.038-0.361-0.083-0.72-0.129-1.079c-0.069-0.544-0.147-1.087-0.234-1.629
	c-0.049-0.303-0.098-0.605-0.153-0.907c-0.114-0.632-0.244-1.262-0.383-1.89c-0.048-0.218-0.092-0.437-0.143-0.655
	c-0.201-0.852-0.42-1.701-0.667-2.544h224.979l0,0C385.944,362.837,385.726,363.684,385.525,364.535z M467.072,375.882
	c-0.001,0.504-0.013,1.008-0.036,1.511c-0.002,0.033-0.003,0.067-0.005,0.1c-0.401,8.177-3.717,16.237-9.949,22.468
	c-6.453,6.453-15.032,10.007-24.158,10.007s-17.706-3.554-24.158-10.007c-6.232-6.232-9.547-14.291-9.949-22.468
	c-0.002-0.033-0.003-0.067-0.005-0.1c-0.023-0.503-0.035-1.006-0.036-1.509c0-0.042-0.001-0.083-0.001-0.124
	c0.001-1.066,0.052-2.133,0.152-3.195c0.009-0.089,0.021-0.178,0.03-0.268c0.042-0.406,0.09-0.811,0.146-1.215
	c0.027-0.196,0.059-0.391,0.09-0.586c0.047-0.301,0.097-0.601,0.152-0.901c0.04-0.218,0.082-0.435,0.126-0.652
	c0.059-0.288,0.122-0.575,0.188-0.861c0.048-0.208,0.095-0.417,0.147-0.625c0.087-0.349,0.182-0.696,0.281-1.043
	c0.038-0.135,0.073-0.272,0.113-0.407c0.148-0.497,0.306-0.991,0.477-1.482c0.018-0.052,0.038-0.102,0.056-0.154
	c0.16-0.452,0.328-0.901,0.508-1.348c0.03-0.074,0.061-0.147,0.091-0.221c0.181-0.442,0.37-0.881,0.571-1.316
	c0.021-0.046,0.042-0.092,0.064-0.139c0.559-1.2,1.199-2.371,1.905-3.513c0.207-0.333,0.413-0.667,0.631-0.993
	c0.151-0.227,0.311-0.449,0.468-0.673c0.229-0.326,0.463-0.648,0.703-0.966c0.154-0.203,0.31-0.405,0.469-0.606
	c0.276-0.348,0.56-0.689,0.85-1.026c0.139-0.162,0.274-0.325,0.416-0.485c0.439-0.492,0.889-0.976,1.356-1.443
	c9.771-9.771,24.035-12.365,36.202-7.801c2.346,0.88,4.618,2.017,6.76,3.431c1.893,1.249,3.689,2.706,5.354,4.371
	c0.467,0.467,0.916,0.95,1.354,1.441c0.146,0.164,0.285,0.331,0.427,0.497c0.284,0.331,0.564,0.667,0.835,1.008
	c0.164,0.207,0.325,0.415,0.483,0.624c0.234,0.308,0.46,0.622,0.683,0.938c0.163,0.232,0.329,0.463,0.486,0.698
	c0.213,0.319,0.415,0.646,0.617,0.972c0.711,1.149,1.357,2.327,1.919,3.536c0.018,0.039,0.036,0.078,0.054,0.117
	c0.205,0.445,0.399,0.894,0.584,1.346c0.026,0.064,0.053,0.127,0.079,0.192c0.186,0.462,0.361,0.928,0.526,1.397
	c0.013,0.036,0.027,0.071,0.039,0.107c0.173,0.497,0.334,0.997,0.483,1.5c0.034,0.115,0.063,0.232,0.096,0.347
	c0.105,0.367,0.205,0.736,0.298,1.106c0.049,0.196,0.093,0.393,0.139,0.59c0.069,0.298,0.135,0.597,0.196,0.897
	c0.042,0.208,0.083,0.417,0.121,0.626c0.057,0.309,0.108,0.62,0.157,0.93c0.029,0.187,0.06,0.374,0.086,0.562
	c0.058,0.416,0.107,0.833,0.15,1.25c0.008,0.079,0.019,0.158,0.027,0.236c0.101,1.064,0.151,2.133,0.153,3.201
	C467.073,375.801,467.072,375.841,467.072,375.882z M484.333,373.049h-2.765c-0.018-0.309-0.056-0.616-0.079-0.924
	c-0.036-0.476-0.073-0.952-0.123-1.427c-0.038-0.361-0.083-0.721-0.129-1.081c-0.069-0.541-0.146-1.081-0.233-1.62
	c-0.05-0.307-0.099-0.613-0.155-0.918c-0.113-0.626-0.241-1.25-0.379-1.872c-0.05-0.224-0.094-0.448-0.147-0.671
	c-0.201-0.851-0.419-1.698-0.666-2.539h17.175C496.07,368.216,490.755,373.049,484.333,373.049z M497.427,347.423h-24.872
	c-0.062-0.087-0.13-0.171-0.193-0.257c-0.143-0.196-0.291-0.389-0.437-0.584c-0.308-0.41-0.621-0.816-0.942-1.217
	c-0.172-0.215-0.346-0.428-0.522-0.64c-0.328-0.396-0.664-0.786-1.005-1.172c-0.165-0.187-0.328-0.376-0.497-0.561
	c-0.512-0.562-1.034-1.115-1.572-1.654c-0.588-0.587-1.188-1.157-1.799-1.71c-0.096-0.087-0.196-0.167-0.292-0.252
	c-0.526-0.468-1.056-0.929-1.599-1.372c-0.025-0.02-0.051-0.039-0.076-0.059c-8.658-7.047-19.382-10.881-30.698-10.881
	s-22.04,3.834-30.698,10.881c-0.025,0.02-0.051,0.039-0.076,0.059c-0.542,0.443-1.073,0.904-1.599,1.372
	c-0.097,0.086-0.196,0.166-0.292,0.252c-0.612,0.553-1.212,1.123-1.799,1.71c-0.537,0.537-1.058,1.09-1.569,1.65
	c-0.173,0.19-0.34,0.384-0.51,0.576c-0.334,0.378-0.663,0.76-0.986,1.148c-0.183,0.22-0.363,0.441-0.541,0.664
	c-0.314,0.393-0.621,0.791-0.923,1.193c-0.149,0.199-0.301,0.396-0.447,0.597c-0.063,0.086-0.129,0.169-0.191,0.256H374.66V201.087
	h71.199c2.125,0,4.202,0.868,5.696,2.38l43.559,44.097h0.001c1.49,1.508,2.31,3.506,2.31,5.627v94.232H497.427z"/>
<path d="M114.48,352.5c-12.849,0-23.302,10.453-23.302,23.302s10.453,23.302,23.302,23.302s23.302-10.453,23.302-23.302
	C137.781,362.953,127.328,352.5,114.48,352.5z M114.48,384.53c-4.813,0-8.729-3.916-8.729-8.729c0-4.813,3.916-8.729,8.729-8.729
	s8.729,3.916,8.729,8.729C123.208,380.615,119.293,384.53,114.48,384.53z"/>
<path d="M432.924,352.5c-12.848,0-23.302,10.453-23.302,23.302s10.453,23.302,23.302,23.302s23.302-10.453,23.302-23.302
	S445.772,352.5,432.924,352.5z M432.924,384.53c-4.813,0-8.729-3.916-8.729-8.729c0-4.813,3.916-8.729,8.729-8.729
	c4.813,0,8.729,3.916,8.729,8.729C441.653,380.615,437.737,384.53,432.924,384.53z"/>
<g>
</g>
<g>
</g>
<g>
</g>
<g>
</g>
<g>
</g>
<g>
</g>
<g>
</g>
<g>
</g>
<g>
</g>
<g>
</g>
<g>
</g>
<g>
</g>
<g>
</g>
<g>
</g>
<g>
</g>
</svg>
